<svg xmlns="http://www.w3.org/2000/svg" viewBox="0 0 100 100" width="100" height="100">
  <!-- Chain link icon in Unibas Mint Green - centered and scaled for favicon -->
  <g transform="translate(20, 15) scale(1)">
    <!-- Single interlocking chain link -->
    <path d="M 0 20
             A 10 10 0 0 1 0 0
             L 25 0
             A 10 10 0 0 1 25 20
             L 25 30
             L 35 30
             L 35 20
             A 10 10 0 0 1 35 0
             L 60 0
             A 10 10 0 0 1 60 20
             L 60 50
             A 10 10 0 0 1 60 70
             L 35 70
             A 10 10 0 0 1 35 50
             L 35 40
             L 25 40
             L 25 50
             A 10 10 0 0 1 25 70
             L 0 70
             A 10 10 0 0 1 0 50
             Z" 
          fill="#A5D7D2" 
          stroke="none"/>
  </g>
</svg>
